<?xml version="1.0" standalone="no"?>
<!DOCTYPE svg PUBLIC "-//W3C//DTD SVG 20010904//EN"
 "http://www.w3.org/TR/2001/REC-SVG-20010904/DTD/svg10.dtd">
<svg version="1.0" xmlns="http://www.w3.org/2000/svg"
 width="1280.000000pt" height="909.000000pt" viewBox="0 0 1280.000000 909.000000"
 preserveAspectRatio="xMidYMid meet">
<metadata>
Created by potrace 1.15, written by Peter Selinger 2001-2017
</metadata>
<g transform="translate(0.000000,909.000000) scale(0.100000,-0.100000)"
fill="#f44336" stroke="none">
<path d="M4325 8184 c-416 -62 -754 -238 -1050 -546 -171 -177 -287 -346 -406
-593 -180 -373 -272 -761 -299 -1267 -53 -966 309 -1660 1215 -2331 116 -86
341 -237 850 -572 278 -183 448 -307 630 -462 430 -364 798 -775 1043 -1163
65 -104 142 -253 161 -312 15 -47 30 -57 38 -27 13 50 114 240 183 344 272
411 719 896 1189 1289 213 177 333 265 749 545 386 260 590 405 743 527 602
480 915 976 1011 1598 38 250 29 652 -23 975 -97 611 -340 1119 -700 1466
-264 254 -553 407 -901 477 -150 30 -449 32 -603 4 -383 -70 -726 -252 -1029
-546 -225 -219 -380 -437 -534 -752 -54 -108 -100 -197 -103 -198 -4 0 -17 24
-29 54 -64 158 -289 522 -437 706 -324 403 -726 665 -1169 760 -78 17 -142 22
-299 25 -110 2 -213 1 -230 -1z"/>
</g>
</svg>
